<svg width="668.8474853515625px" height="124.67750549316406px" xmlns="http://www.w3.org/2000/svg" viewBox="-84.42374267578123 12.661247253417969 668.8474853515625 124.67750549316406" style="background: none;" preserveAspectRatio="xMidYMid"><defs><filter id="editing-vintage" x="-100%" y="-100%" width="300%" height="300%"><feConvolveMatrix in="SourceGraphic" result="extrude" order="9,9" divisor="1" kernelMatrix="1,0,0,0,0,0,0,0,0,0,1,0,0,0,0,0,0,0,0,0,1,0,0,0,0,0,0,0,0,0,1,0,0,0,0,0,0,0,0,0,1,0,0,0,0,0,0,0,0,0,1,0,0,0,0,0,0,0,0,0,1,0,0,0,0,0,0,0,0,0,1,0,0,0,0,0,0,0,0,0,1"> </feConvolveMatrix><feFlood flood-color="#900" result="flood-extrude"></feFlood><feComposite operator="in" in="flood-extrude" in2="extrude" result="extrude-color"></feComposite><feOffset dx="5" dy="5" in="extrude-color" result="extrude-offset"></feOffset><feColorMatrix in="SourceGraphic" result="stroke" type="matrix" values="0 0 0 0 0 0 0 0 0 0 0 0 0 0 0 0 1 0 0 0 "></feColorMatrix><feColorMatrix in="SourceGraphic" result="fill" type="matrix" values="0 0 0 0 0 0 0 0 0 0 0 0 0 0 0 1 0 0 1 0 "></feColorMatrix><feConvolveMatrix in="stroke" result="inner-shadow" order="5,5" divisor="1" kernelMatrix="1 0 0 0 0 0 1 0 0 0 0 0 1 0 0 0 0 0 1 0 0 0 0 0 1 "></feConvolveMatrix><feOffset dx="1" dy="1" in="inner-shadow" result="offset"></feOffset><feComposite operator="in" in="offset" in2="SourceAlpha" result="comp"></feComposite><feFlood flood-color="#000" result="flood3"></feFlood><feComposite operator="in" in="flood3" in2="comp" result="comp2"></feComposite><feColorMatrix in="comp2" result="comp3" type="matrix" values="1 0 0 0 0 0 1 0 0 0 0 0 1 0 0 0 0 0 0.5 0 "></feColorMatrix><feFlood flood-color="#f00" result="flood1"></feFlood><feComposite operator="in" in="flood1" in2="fill" result="fill2"></feComposite><feFlood flood-color="#fff" result="flood2"></feFlood><feComposite operator="in" in="flood2" in2="stroke" result="stroke2"></feComposite><feMerge result="obj"><feMergeNode in="extrude-offset"></feMergeNode><feMergeNode in="fill2"></feMergeNode><feMergeNode in="comp3"></feMergeNode></feMerge><feConvolveMatrix in="SourceAlpha" result="shadow" order="9,9" divisor="1" kernelMatrix="1,0,0,0,0,0,0,0,0,0,1,0,0,0,0,0,0,0,0,0,1,0,0,0,0,0,0,0,0,0,1,0,0,0,0,0,0,0,0,0,1,0,0,0,0,0,0,0,0,0,1,0,0,0,0,0,0,0,0,0,1,0,0,0,0,0,0,0,0,0,1,0,0,0,0,0,0,0,0,0,1"></feConvolveMatrix><feOffset dx="15" dy="15" in="shadow" result="shadow-offset"></feOffset><feFlood flood-color="#444444" result="flood-shadow"></feFlood><feComposite operator="in" in="flood-shadow" in2="shadow-offset" result="shadow-color"></feComposite><feMerge><feMergeNode in="shadow-color"></feMergeNode><feMergeNode in="obj"></feMergeNode></feMerge></filter></defs><g transform="translate(-9,-9)"><g filter="url(#editing-vintage)"><g transform="translate(11.760007858276367, 102.84000015258789)"><path d="M2.50-0.64L2.50-9.28L2.50-9.28Q20.03-8.32 26.24-8.32L26.24-8.32L26.24-8.32Q27.71-8.32 28.58-9.18L28.58-9.18L28.58-9.18Q29.44-10.05 29.44-11.52L29.44-11.52L29.44-17.28L14.72-17.28L14.72-17.28Q8-17.28 4.96-20.32L4.96-20.32L4.96-20.32Q1.92-23.36 1.92-30.08L1.92-30.08L1.92-32L1.92-32Q1.92-38.72 4.96-41.76L4.96-41.76L4.96-41.76Q8-44.80 14.72-44.80L14.72-44.80L37.18-44.80L37.18-35.84L17.28-35.84L17.28-35.84Q13.44-35.84 13.44-32L13.44-32L13.44-30.72L13.44-30.72Q13.44-26.88 17.28-26.88L17.28-26.88L28.80-26.88L28.80-26.88Q35.07-26.88 38.02-23.94L38.02-23.94L38.02-23.94Q40.96-20.99 40.96-14.72L40.96-14.72L40.96-11.52L40.96-11.52Q40.96-5.25 38.02-2.30L38.02-2.30L38.02-2.30Q35.07 0.64 28.80 0.64L28.80 0.64L28.80 0.64Q25.54 0.64 21.89 0.51L21.89 0.51L16 0.26L16 0.26Q9.47-0.06 2.50-0.64L2.50-0.64ZM59.52-8.64L61.76-8.64L61.76-8.64Q65.15-8.64 69.44-9.92L69.44-9.92L69.44-33.92L80.64-33.92L80.64 0L70.72 0L70.08-3.20L70.08-3.20Q67.07-1.22 63.90-0.29L63.90-0.29L63.90-0.29Q60.74 0.64 58.56 0.64L58.56 0.64L55.68 0.64L55.68 0.64Q51.33 0.64 48.70-1.98L48.70-1.98L48.70-1.98Q46.08-4.61 46.08-8.96L46.08-8.96L46.08-33.92L57.28-33.92L57.28-10.88L57.28-10.88Q57.28-9.92 57.92-9.28L57.92-9.28L57.92-9.28Q58.56-8.64 59.52-8.64L59.52-8.64ZM108.16-25.28L105.92-25.28L105.92-25.28Q102.53-25.28 98.24-24L98.24-24L98.24-8.64L107.84-8.64L107.84-8.64Q110.40-8.64 110.40-11.20L110.40-11.20L110.40-23.04L110.40-23.04Q110.40-24 109.76-24.64L109.76-24.64L109.76-24.64Q109.12-25.28 108.16-25.28L108.16-25.28ZM111.36 0L98.24 0L98.24 10.88L87.04 10.88L87.04-33.92L96.96-33.92L97.60-30.72L97.60-30.72Q100.61-32.70 103.78-33.63L103.78-33.63L103.78-33.63Q106.94-34.56 109.12-34.56L109.12-34.56L112-34.56L112-34.56Q116.35-34.56 118.98-31.94L118.98-31.94L118.98-31.94Q121.60-29.31 121.60-24.96L121.60-24.96L121.60-10.24L121.60-10.24Q121.60-5.44 118.88-2.72L118.88-2.72L118.88-2.72Q116.16 0 111.36 0L111.36 0ZM146.24-26.56L140.48-26.56L140.48-26.56Q137.92-26.56 137.92-24L137.92-24L137.92-20.48L148.80-20.48L148.80-24L148.80-24Q148.80-26.56 146.24-26.56L146.24-26.56ZM158.72-8.64L158.72-0.64L158.72-0.64Q146.37 0.64 136.32 0.64L136.32 0.64L136.32 0.64Q131.97 0.64 129.34-1.98L129.34-1.98L129.34-1.98Q126.72-4.61 126.72-8.96L126.72-8.96L126.72-24.32L126.72-24.32Q126.72-29.12 129.44-31.84L129.44-31.84L129.44-31.84Q132.16-34.56 136.96-34.56L136.96-34.56L149.76-34.56L149.76-34.56Q154.56-34.56 157.28-31.84L157.28-31.84L157.28-31.84Q160-29.12 160-24.32L160-24.32L160-12.48L137.92-12.48L137.92-9.92L137.92-9.92Q137.92-8.96 138.56-8.32L138.56-8.32L138.56-8.32Q139.20-7.68 140.16-7.68L140.16-7.68L140.16-7.68Q146.50-7.68 158.72-8.64L158.72-8.64ZM190.72-24.64L185.28-24.64L185.28-24.64Q181.25-24.64 176.96-22.72L176.96-22.72L176.96 0L165.76 0L165.76-33.92L175.68-33.92L176.32-29.76L176.32-29.76Q181.82-34.56 187.84-34.56L187.84-34.56L190.72-34.56L190.72-24.64ZM206.40-44.80L206.40-33.28L206.40-33.28Q212.61-34.56 217.28-34.56L217.28-34.56L220.16-34.56L220.16-34.56Q224.51-34.56 227.14-31.94L227.14-31.94L227.14-31.94Q229.76-29.31 229.76-24.96L229.76-24.96L229.76 0L218.56 0L218.56-23.68L218.56-23.68Q218.56-24.64 217.92-25.28L217.92-25.28L217.92-25.28Q217.28-25.92 216.32-25.92L216.32-25.92L214.08-25.92L214.08-25.92Q211.65-25.92 209.63-25.66L209.63-25.66L209.63-25.66Q207.62-25.41 206.40-25.28L206.40-25.28L206.40 0L195.20 0L195.20-44.80L206.40-44.80ZM254.40-26.56L248.64-26.56L248.64-26.56Q246.08-26.56 246.08-24L246.08-24L246.08-20.48L256.96-20.48L256.96-24L256.96-24Q256.96-26.56 254.40-26.56L254.40-26.56ZM266.88-8.64L266.88-0.64L266.88-0.64Q254.53 0.64 244.48 0.64L244.48 0.64L244.48 0.64Q240.13 0.64 237.50-1.98L237.50-1.98L237.50-1.98Q234.88-4.61 234.88-8.96L234.88-8.96L234.88-24.32L234.88-24.32Q234.88-29.12 237.60-31.84L237.60-31.84L237.60-31.84Q240.32-34.56 245.12-34.56L245.12-34.56L257.92-34.56L257.92-34.56Q262.72-34.56 265.44-31.84L265.44-31.84L265.44-31.84Q268.16-29.12 268.16-24.32L268.16-24.32L268.16-12.48L246.08-12.48L246.08-9.92L246.08-9.92Q246.08-8.96 246.72-8.32L246.72-8.32L246.72-8.32Q247.36-7.68 248.32-7.68L248.32-7.68L248.32-7.68Q254.66-7.68 266.88-8.64L266.88-8.64ZM298.88-24.64L293.44-24.64L293.44-24.64Q289.41-24.64 285.12-22.72L285.12-22.72L285.12 0L273.92 0L273.92-33.92L283.84-33.92L284.48-29.76L284.48-29.76Q289.98-34.56 296-34.56L296-34.56L298.88-34.56L298.88-24.64ZM336.64-24.32L336.64-9.60L336.64-9.60Q336.64-4.80 333.92-2.08L333.92-2.08L333.92-2.08Q331.20 0.64 326.40 0.64L326.40 0.64L311.68 0.64L311.68 0.64Q306.88 0.64 304.16-2.08L304.16-2.08L304.16-2.08Q301.44-4.80 301.44-9.60L301.44-9.60L301.44-24.32L301.44-24.32Q301.44-29.12 304.16-31.84L304.16-31.84L304.16-31.84Q306.88-34.56 311.68-34.56L311.68-34.56L326.40-34.56L326.40-34.56Q331.20-34.56 333.92-31.84L333.92-31.84L333.92-31.84Q336.64-29.12 336.64-24.32L336.64-24.32ZM325.44-10.56L325.44-23.36L325.44-23.36Q325.44-25.92 322.88-25.92L322.88-25.92L315.20-25.92L315.20-25.92Q312.64-25.92 312.64-23.36L312.64-23.36L312.64-10.56L312.64-10.56Q312.64-8 315.20-8L315.20-8L322.88-8L322.88-8Q325.44-8 325.44-10.56L325.44-10.56ZM373.44-8.32L375.04-8.32L375.04-8.32Q378.43-8.32 382.72-9.60L382.72-9.60L382.72-13.44L373.44-13.44L373.44-13.44Q372.48-13.44 371.84-12.80L371.84-12.80L371.84-12.80Q371.20-12.16 371.20-11.20L371.20-11.20L371.20-10.56L371.20-10.56Q371.20-9.60 371.84-8.96L371.84-8.96L371.84-8.96Q372.48-8.32 373.44-8.32L373.44-8.32ZM363.20-25.28L363.20-33.28L363.20-33.28Q374.91-34.56 384.32-34.56L384.32-34.56L384.32-34.56Q388.67-34.56 391.30-31.94L391.30-31.94L391.30-31.94Q393.92-29.31 393.92-24.96L393.92-24.96L393.92 0L384 0L383.36-3.20L383.36-3.20Q380.35-1.22 377.18-0.29L377.18-0.29L377.18-0.29Q374.02 0.64 371.84 0.64L371.84 0.64L369.60 0.64L369.60 0.64Q365.25 0.64 362.62-1.98L362.62-1.98L362.62-1.98Q360-4.61 360-8.96L360-8.96L360-11.84L360-11.84Q360-16.19 362.62-18.82L362.62-18.82L362.62-18.82Q365.25-21.44 369.60-21.44L369.60-21.44L382.72-21.44L382.72-24L382.72-24Q382.72-24.96 382.08-25.60L382.08-25.60L382.08-25.60Q381.44-26.24 380.48-26.24L380.48-26.24L380.48-26.24Q376.32-26.24 371.30-25.86L371.30-25.86L371.30-25.86Q366.27-25.47 363.20-25.28L363.20-25.28ZM420.80-25.28L418.56-25.28L418.56-25.28Q415.17-25.28 410.88-24L410.88-24L410.88-8.64L420.48-8.64L420.48-8.64Q423.04-8.64 423.04-11.20L423.04-11.20L423.04-23.04L423.04-23.04Q423.04-24 422.40-24.64L422.40-24.64L422.40-24.64Q421.76-25.28 420.80-25.28L420.80-25.28ZM424.00 0L410.88 0L410.88 10.88L399.68 10.88L399.68-33.92L409.60-33.92L410.24-30.72L410.24-30.72Q413.25-32.70 416.42-33.63L416.42-33.63L416.42-33.63Q419.58-34.56 421.76-34.56L421.76-34.56L424.64-34.56L424.64-34.56Q428.99-34.56 431.62-31.94L431.62-31.94L431.62-31.94Q434.24-29.31 434.24-24.96L434.24-24.96L434.24-10.24L434.24-10.24Q434.24-5.44 431.52-2.72L431.52-2.72L431.52-2.72Q428.80 0 424.00 0L424.00 0ZM461.12-25.28L458.88-25.28L458.88-25.28Q455.49-25.28 451.20-24L451.20-24L451.20-8.64L460.80-8.64L460.80-8.64Q463.36-8.64 463.36-11.20L463.36-11.20L463.36-23.04L463.36-23.04Q463.36-24 462.72-24.64L462.72-24.64L462.72-24.64Q462.08-25.28 461.12-25.28L461.12-25.28ZM464.32 0L451.20 0L451.20 10.88L440.00 10.88L440.00-33.92L449.92-33.92L450.56-30.72L450.56-30.72Q453.57-32.70 456.74-33.63L456.74-33.63L456.74-33.63Q459.90-34.56 462.08-34.56L462.08-34.56L464.96-34.56L464.96-34.56Q469.31-34.56 471.94-31.94L471.94-31.94L471.94-31.94Q474.56-29.31 474.56-24.96L474.56-24.96L474.56-10.24L474.56-10.24Q474.56-5.44 471.84-2.72L471.84-2.72L471.84-2.72Q469.12 0 464.32 0L464.32 0Z" fill="#f00" stroke="#0f0" stroke-width="1.8"></path></g></g><g><g transform="translate(11.760007858276367, 102.84000015258789)"><path d="M2.50-0.64L2.50-9.28L2.50-9.28Q20.03-8.32 26.24-8.32L26.24-8.32L26.24-8.32Q27.71-8.32 28.58-9.18L28.58-9.18L28.58-9.18Q29.44-10.05 29.44-11.52L29.44-11.52L29.44-17.28L14.72-17.28L14.72-17.28Q8-17.28 4.96-20.32L4.96-20.32L4.96-20.32Q1.92-23.36 1.92-30.08L1.92-30.08L1.92-32L1.92-32Q1.92-38.72 4.96-41.76L4.96-41.76L4.96-41.76Q8-44.80 14.72-44.80L14.72-44.80L37.18-44.80L37.18-35.84L17.28-35.84L17.28-35.84Q13.44-35.84 13.44-32L13.44-32L13.44-30.72L13.44-30.72Q13.44-26.88 17.28-26.88L17.28-26.88L28.80-26.88L28.80-26.88Q35.07-26.88 38.02-23.94L38.02-23.94L38.02-23.94Q40.96-20.99 40.96-14.72L40.96-14.72L40.96-11.52L40.96-11.52Q40.96-5.25 38.02-2.30L38.02-2.30L38.02-2.30Q35.07 0.64 28.80 0.64L28.80 0.64L28.80 0.64Q25.54 0.64 21.89 0.51L21.89 0.51L16 0.26L16 0.26Q9.47-0.06 2.50-0.64L2.50-0.64ZM59.52-8.64L61.76-8.64L61.76-8.64Q65.15-8.64 69.44-9.92L69.44-9.92L69.44-33.92L80.64-33.92L80.64 0L70.72 0L70.08-3.20L70.08-3.20Q67.07-1.22 63.90-0.29L63.90-0.29L63.90-0.29Q60.74 0.64 58.56 0.64L58.56 0.64L55.68 0.64L55.68 0.64Q51.33 0.64 48.70-1.98L48.70-1.98L48.70-1.98Q46.08-4.61 46.08-8.96L46.08-8.96L46.08-33.92L57.28-33.92L57.28-10.88L57.28-10.88Q57.28-9.92 57.92-9.28L57.92-9.28L57.92-9.28Q58.56-8.64 59.52-8.64L59.52-8.64ZM108.16-25.28L105.92-25.28L105.92-25.28Q102.53-25.28 98.24-24L98.24-24L98.24-8.64L107.84-8.64L107.84-8.64Q110.40-8.64 110.40-11.20L110.40-11.20L110.40-23.04L110.40-23.04Q110.40-24 109.76-24.64L109.76-24.64L109.76-24.64Q109.12-25.28 108.16-25.28L108.16-25.28ZM111.36 0L98.24 0L98.24 10.88L87.04 10.88L87.04-33.92L96.96-33.92L97.60-30.72L97.60-30.72Q100.61-32.70 103.78-33.63L103.78-33.63L103.78-33.63Q106.94-34.56 109.12-34.56L109.12-34.56L112-34.56L112-34.56Q116.35-34.56 118.98-31.94L118.98-31.94L118.98-31.94Q121.60-29.31 121.60-24.96L121.60-24.96L121.60-10.24L121.60-10.24Q121.60-5.44 118.88-2.72L118.88-2.72L118.88-2.72Q116.16 0 111.36 0L111.36 0ZM146.24-26.56L140.48-26.56L140.48-26.56Q137.92-26.56 137.92-24L137.92-24L137.92-20.48L148.80-20.48L148.80-24L148.80-24Q148.80-26.56 146.24-26.56L146.24-26.56ZM158.72-8.64L158.72-0.64L158.72-0.64Q146.37 0.64 136.32 0.64L136.32 0.64L136.32 0.64Q131.97 0.64 129.34-1.98L129.34-1.98L129.34-1.98Q126.72-4.61 126.72-8.96L126.72-8.96L126.72-24.32L126.72-24.32Q126.72-29.12 129.44-31.84L129.44-31.84L129.44-31.84Q132.16-34.56 136.96-34.56L136.96-34.56L149.76-34.56L149.76-34.56Q154.56-34.56 157.28-31.84L157.28-31.84L157.28-31.84Q160-29.12 160-24.32L160-24.32L160-12.48L137.92-12.48L137.92-9.92L137.92-9.92Q137.92-8.96 138.56-8.32L138.56-8.32L138.56-8.32Q139.20-7.68 140.16-7.68L140.16-7.68L140.16-7.68Q146.50-7.68 158.72-8.64L158.72-8.64ZM190.72-24.64L185.28-24.64L185.28-24.64Q181.25-24.64 176.96-22.72L176.96-22.72L176.96 0L165.76 0L165.76-33.92L175.68-33.92L176.32-29.76L176.32-29.76Q181.82-34.56 187.84-34.56L187.84-34.56L190.72-34.56L190.72-24.64ZM206.40-44.80L206.40-33.28L206.40-33.28Q212.61-34.56 217.28-34.56L217.28-34.56L220.16-34.56L220.16-34.56Q224.51-34.56 227.14-31.94L227.14-31.94L227.14-31.94Q229.76-29.31 229.76-24.96L229.76-24.96L229.76 0L218.56 0L218.56-23.68L218.56-23.68Q218.56-24.64 217.92-25.28L217.92-25.28L217.92-25.28Q217.28-25.92 216.32-25.92L216.32-25.92L214.08-25.92L214.08-25.92Q211.65-25.92 209.63-25.66L209.63-25.66L209.63-25.66Q207.62-25.41 206.40-25.28L206.40-25.28L206.40 0L195.20 0L195.20-44.80L206.40-44.80ZM254.40-26.56L248.64-26.56L248.64-26.56Q246.08-26.56 246.08-24L246.08-24L246.08-20.48L256.96-20.48L256.96-24L256.96-24Q256.96-26.56 254.40-26.56L254.40-26.56ZM266.88-8.64L266.88-0.64L266.88-0.64Q254.53 0.64 244.48 0.64L244.48 0.64L244.48 0.64Q240.13 0.64 237.50-1.98L237.50-1.98L237.50-1.98Q234.88-4.61 234.88-8.96L234.88-8.96L234.88-24.32L234.88-24.32Q234.88-29.12 237.60-31.84L237.60-31.84L237.60-31.84Q240.32-34.56 245.12-34.56L245.12-34.56L257.92-34.56L257.92-34.56Q262.72-34.56 265.44-31.84L265.44-31.84L265.44-31.84Q268.16-29.12 268.16-24.32L268.16-24.32L268.16-12.48L246.08-12.48L246.08-9.92L246.08-9.92Q246.08-8.96 246.72-8.32L246.72-8.32L246.72-8.32Q247.36-7.68 248.32-7.68L248.32-7.68L248.32-7.68Q254.66-7.68 266.88-8.64L266.88-8.64ZM298.88-24.64L293.44-24.64L293.44-24.64Q289.41-24.64 285.12-22.72L285.12-22.72L285.12 0L273.92 0L273.92-33.92L283.84-33.92L284.48-29.76L284.48-29.76Q289.98-34.56 296-34.56L296-34.56L298.88-34.56L298.88-24.64ZM336.64-24.32L336.64-9.60L336.64-9.60Q336.64-4.80 333.92-2.08L333.92-2.08L333.92-2.08Q331.20 0.64 326.40 0.64L326.40 0.64L311.68 0.64L311.68 0.64Q306.88 0.64 304.16-2.08L304.16-2.08L304.16-2.08Q301.44-4.80 301.44-9.60L301.44-9.60L301.44-24.32L301.44-24.32Q301.44-29.12 304.16-31.84L304.16-31.84L304.16-31.84Q306.88-34.56 311.68-34.56L311.68-34.56L326.40-34.56L326.40-34.56Q331.20-34.56 333.92-31.84L333.92-31.84L333.92-31.84Q336.64-29.12 336.64-24.32L336.64-24.32ZM325.44-10.56L325.44-23.36L325.44-23.36Q325.44-25.92 322.88-25.92L322.88-25.92L315.20-25.92L315.20-25.92Q312.64-25.92 312.64-23.36L312.64-23.36L312.64-10.56L312.64-10.56Q312.64-8 315.20-8L315.20-8L322.88-8L322.88-8Q325.44-8 325.44-10.56L325.44-10.56ZM373.44-8.32L375.04-8.32L375.04-8.32Q378.43-8.32 382.72-9.60L382.72-9.60L382.72-13.44L373.44-13.44L373.44-13.44Q372.48-13.44 371.84-12.80L371.84-12.80L371.84-12.80Q371.20-12.16 371.20-11.20L371.20-11.20L371.20-10.56L371.20-10.56Q371.20-9.60 371.84-8.96L371.84-8.96L371.84-8.96Q372.48-8.32 373.44-8.32L373.44-8.32ZM363.20-25.28L363.20-33.28L363.20-33.28Q374.91-34.56 384.32-34.56L384.32-34.56L384.32-34.56Q388.67-34.56 391.30-31.94L391.30-31.94L391.30-31.94Q393.92-29.31 393.92-24.96L393.92-24.96L393.92 0L384 0L383.36-3.20L383.36-3.20Q380.35-1.22 377.18-0.29L377.18-0.29L377.18-0.29Q374.02 0.64 371.84 0.64L371.84 0.64L369.60 0.64L369.60 0.64Q365.25 0.64 362.62-1.98L362.62-1.98L362.62-1.98Q360-4.61 360-8.96L360-8.96L360-11.84L360-11.84Q360-16.19 362.62-18.82L362.62-18.82L362.62-18.82Q365.25-21.44 369.60-21.44L369.60-21.44L382.72-21.44L382.72-24L382.72-24Q382.72-24.96 382.08-25.60L382.08-25.60L382.08-25.60Q381.44-26.24 380.48-26.24L380.48-26.24L380.48-26.24Q376.32-26.24 371.30-25.86L371.30-25.86L371.30-25.86Q366.27-25.47 363.20-25.28L363.20-25.28ZM420.80-25.28L418.56-25.28L418.56-25.28Q415.17-25.28 410.88-24L410.88-24L410.88-8.64L420.48-8.64L420.48-8.64Q423.04-8.64 423.04-11.20L423.04-11.20L423.04-23.04L423.04-23.04Q423.04-24 422.40-24.64L422.40-24.64L422.40-24.64Q421.76-25.28 420.80-25.28L420.80-25.28ZM424.00 0L410.88 0L410.88 10.88L399.68 10.88L399.68-33.92L409.60-33.92L410.24-30.72L410.24-30.72Q413.25-32.70 416.42-33.63L416.42-33.63L416.42-33.63Q419.58-34.56 421.76-34.56L421.76-34.56L424.64-34.56L424.64-34.56Q428.99-34.56 431.62-31.94L431.62-31.94L431.62-31.94Q434.24-29.31 434.24-24.96L434.24-24.96L434.24-10.24L434.24-10.24Q434.24-5.44 431.52-2.72L431.52-2.72L431.52-2.72Q428.80 0 424.00 0L424.00 0ZM461.12-25.28L458.88-25.28L458.88-25.28Q455.49-25.28 451.20-24L451.20-24L451.20-8.64L460.80-8.64L460.80-8.64Q463.36-8.64 463.36-11.20L463.36-11.20L463.36-23.04L463.36-23.04Q463.36-24 462.72-24.64L462.72-24.64L462.72-24.64Q462.08-25.28 461.12-25.28L461.12-25.28ZM464.32 0L451.20 0L451.20 10.88L440.00 10.88L440.00-33.92L449.92-33.92L450.56-30.72L450.56-30.72Q453.57-32.70 456.74-33.63L456.74-33.63L456.74-33.63Q459.90-34.56 462.08-34.56L462.08-34.56L464.96-34.56L464.96-34.56Q469.31-34.56 471.94-31.94L471.94-31.94L471.94-31.94Q474.56-29.31 474.56-24.96L474.56-24.96L474.56-10.24L474.56-10.24Q474.56-5.44 471.84-2.72L471.84-2.72L471.84-2.72Q469.12 0 464.32 0L464.32 0Z" fill="none" stroke="#fff" stroke-width="2.1"></path></g></g></g><style>text {
  font-size: 64px;
  font-family: Arial Black;
  dominant-baseline: central;
  text-anchor: middle;
}</style></svg>