<svg width="589.0325073242187px" height="138.107421875px" xmlns="http://www.w3.org/2000/svg" viewBox="-44.516253662109364 5.9462890625 589.0325073242187 138.107421875" style="background: rgba(0, 0, 0, 0);" preserveAspectRatio="xMidYMid"><defs><linearGradient id="editing-sticker-gradient" x1="0.5" y1="0.2" x2="0.5" y2="0.8"><stop offset="0" stop-color="#fd9"></stop><stop offset="1" stop-color="#9df"></stop></linearGradient><filter id="editing-sticker" x="-100%" y="-100%" width="300%" height="300%"><feMorphology operator="erode" radius="1" in="SourceAlpha" result="alpha-erode"></feMorphology><feConvolveMatrix order="3,3" divisor="1" kernelMatrix="0 1 0 1 1 1 0 1 0" in="alpha-erode" result="alpha-round"></feConvolveMatrix><feMorphology operator="dilate" radius="3.5" in="alpha-round" result="dilate-shadow"></feMorphology><feGaussianBlur in="dilate-shadow" stdDeviation="1.5" result="shadow"></feGaussianBlur><feFlood flood-color="#fff" result="flood-sticker"></feFlood><feComposite operator="in" in="flood-sticker" in2="alpha-round" result="comp-sticker"></feComposite><feMorphology operator="dilate" radius="3" in="comp-sticker" result="morph-sticker"></feMorphology><feConvolveMatrix order="3,3" divisor="1" kernelMatrix="0 1 0 1 1 1 0 1 0" in="morph-sticker" result="sticker"></feConvolveMatrix><feMerge><feMergeNode in="shadow"></feMergeNode><feMergeNode in="sticker"></feMergeNode><feMergeNode in="SourceGraphic"></feMergeNode></feMerge></filter></defs><g filter="url(#editing-sticker)"><g transform="translate(39.46999502182007, 96.15500068664551)"><path d="M14.02 0.77L14.02 0.77Q11.33 0.77 9.09 0.29L9.09 0.29L9.09 0.29Q6.85-0.19 5.41-0.77L5.41-0.77L5.41-0.77Q3.97-1.34 3.97-1.41L3.97-1.41L3.65-2.05L3.65-2.05Q3.71-2.43 3.90-3.97L3.90-3.97L3.90-3.97Q4.10-5.50 4.26-7.97L4.26-7.97L4.26-7.97Q4.42-10.43 4.42-13.18L4.42-13.18L7.30-13.50L7.30-13.50Q7.30-8.70 7.94-6.40L7.94-6.40L7.94-6.40Q8.58-4.10 10.30-3.23L10.30-3.23L10.30-3.23Q12.03-2.37 15.62-2.37L15.62-2.37L15.62-2.37Q19.65-2.37 22.08-4.26L22.08-4.26L22.08-4.26Q24.51-6.14 24.51-9.41L24.51-9.41L24.51-9.41Q24.51-11.33 23.20-12.86L23.20-12.86L23.20-12.86Q21.89-14.40 20.10-15.49L20.10-15.49L20.10-15.49Q18.30-16.58 14.78-18.43L14.78-18.43L14.78-18.43Q11.46-20.16 9.34-21.60L9.34-21.60L9.34-21.60Q7.23-23.04 5.79-25.02L5.79-25.02L5.79-25.02Q4.35-27.01 4.35-29.63L4.35-29.63L4.35-29.63Q4.35-32.96 6.30-35.68L6.30-35.68L6.30-35.68Q8.26-38.40 11.62-39.97L11.62-39.97L11.62-39.97Q14.98-41.54 19.07-41.54L19.07-41.54L19.07-41.54Q21.63-41.54 23.81-41.18L23.81-41.18L23.81-41.18Q25.98-40.83 27.26-40.45L27.26-40.45L27.26-40.45Q28.54-40.06 28.86-39.94L28.86-39.94L29.06-39.55L29.06-39.55Q28.99-39.17 28.74-37.76L28.74-37.76L28.74-37.76Q28.48-36.35 28.16-33.86L28.16-33.86L28.16-33.86Q27.84-31.36 27.65-28.74L27.65-28.74L25.15-28.48L24.77-28.80L24.77-28.80Q24.83-29.06 24.90-29.98L24.90-29.98L24.90-29.98Q24.96-30.91 24.96-32.13L24.96-32.13L24.96-32.13Q24.96-35.52 23.30-36.80L23.30-36.80L23.30-36.80Q21.63-38.08 17.34-38.08L17.34-38.08L17.34-38.08Q13.82-38.08 11.55-36.32L11.55-36.32L11.55-36.32Q9.28-34.56 9.28-31.94L9.28-31.94L9.28-31.94Q9.28-29.38 11.49-27.49L11.49-27.49L11.49-27.49Q13.70-25.60 17.98-23.36L17.98-23.36L17.98-23.36Q22.14-21.25 24.32-19.87L24.32-19.87L24.32-19.87Q26.50-18.50 28.16-16.45L28.16-16.45L28.16-16.45Q29.82-14.40 29.82-11.71L29.82-11.71L29.82-11.71Q29.82-8.13 27.81-5.28L27.81-5.28L27.81-5.28Q25.79-2.43 22.21-0.83L22.21-0.83L22.21-0.83Q18.62 0.77 14.02 0.77L14.02 0.77ZM51.65 0.58L51.65 0.58Q45.95 0.58 42.98-2.24L42.98-2.24L42.98-2.24Q40-5.06 40-10.37L40-10.37L40-26.69L40-26.69Q40-28.29 39.62-28.83L39.62-28.83L39.62-28.83Q39.23-29.38 38.08-29.38L38.08-29.38L36.35-29.31L36.22-29.50L36.61-32L36.61-32Q37.31-32 39.17-31.94L39.17-31.94L39.17-31.94Q41.02-31.87 42.94-31.87L42.94-31.87L42.94-31.87Q44.35-31.87 46.21-32.03L46.21-32.03L46.21-32.03Q48.06-32.19 48.64-32.26L48.64-32.26L48.38-29.70L48.38-29.70Q46.53-29.44 45.89-28.86L45.89-28.86L45.89-28.86Q45.25-28.29 45.12-26.88L45.12-26.88L44.74-12.22L44.74-12.22Q44.74-7.68 46.85-5.22L46.85-5.22L46.85-5.22Q48.96-2.75 52.93-2.75L52.93-2.75L52.93-2.75Q56.96-2.75 59.04-4.77L59.04-4.77L59.04-4.77Q61.12-6.78 61.12-10.62L61.12-10.62L61.12-10.62Q61.12-14.59 61.02-19.62L61.02-19.62L61.02-19.62Q60.93-24.64 60.86-26.69L60.86-26.69L60.86-26.69Q60.74-28.42 60.42-28.90L60.42-28.90L60.42-28.90Q60.10-29.38 59.01-29.38L59.01-29.38L56.83-29.31L56.77-29.50L57.15-32L57.15-32Q57.79-32 59.55-31.94L59.55-31.94L59.55-31.94Q61.31-31.87 63.10-31.87L63.10-31.87L63.10-31.87Q64.58-31.87 66.27-32.03L66.27-32.03L66.27-32.03Q67.97-32.19 68.48-32.26L68.48-32.26L68.29-29.70L68.29-29.70Q66.05-29.38 65.41-28.86L65.41-28.86L65.41-28.86Q64.77-28.35 64.77-26.94L64.77-26.94L64.77-10.56L64.77-10.56Q64.77-5.25 61.34-2.34L61.34-2.34L61.34-2.34Q57.92 0.58 51.65 0.58L51.65 0.58ZM74.43 0.38L74.82-2.24L74.82-2.24Q77.06-2.62 77.79-3.42L77.79-3.42L77.79-3.42Q78.53-4.22 78.53-6.34L78.53-6.34L78.59-26.69L78.59-26.69Q78.59-28.29 78.21-28.83L78.21-28.83L78.21-28.83Q77.82-29.38 76.74-29.38L76.74-29.38L74.94-29.31L74.75-29.57L75.14-32L75.14-32Q75.46-32 77.02-31.94L77.02-31.94L77.02-31.94Q78.59-31.87 81.15-31.87L81.15-31.87L81.15-31.87Q82.88-31.87 85.06-31.97L85.06-31.97L85.06-31.97Q87.23-32.06 88.13-32.06L88.13-32.06L88.13-32.06Q93.89-32.06 96.80-29.63L96.80-29.63L96.80-29.63Q99.71-27.20 99.71-22.98L99.71-22.98L99.71-22.98Q99.71-20.16 97.98-17.60L97.98-17.60L97.98-17.60Q96.26-15.04 93.47-13.47L93.47-13.47L93.47-13.47Q90.69-11.90 87.55-11.90L87.55-11.90L83.14-11.90L83.07-7.42L83.07-7.42Q83.07-5.18 83.23-4.19L83.23-4.19L83.23-4.19Q83.39-3.20 83.84-2.88L83.84-2.88L83.84-2.88Q84.29-2.56 85.38-2.56L85.38-2.56L85.38-2.56Q86.21-2.56 87.04-2.62L87.04-2.62L87.04-2.62Q87.87-2.69 88.13-2.69L88.13-2.69L88.26-2.43L87.74 0.13L87.74 0.13Q87.17 0.13 85.63 0.06L85.63 0.06L85.63 0.06Q84.10 0 82.50 0L82.50 0L82.50 0Q80.38 0 77.44 0.13L77.44 0.13L77.44 0.13Q74.50 0.26 74.43 0.38L74.43 0.38ZM88.58-14.66L88.58-14.66Q94.53-15.62 94.53-22.08L94.53-22.08L94.53-22.08Q94.53-25.66 92.29-27.36L92.29-27.36L92.29-27.36Q90.05-29.06 85.18-29.06L85.18-29.06L85.18-29.06Q84.29-29.06 84.10-28.96L84.10-28.96L84.10-28.96Q83.90-28.86 83.84-28.29L83.84-28.29L83.84-28.29Q83.33-20.16 83.26-15.36L83.26-15.36L88.58-14.66ZM104.83 0.51L105.15-2.18L105.15-2.18Q107.52-2.43 108.35-3.33L108.35-3.33L108.35-3.33Q109.18-4.22 109.18-6.40L109.18-6.40L109.25-26.69L109.25-26.69Q109.25-28.29 108.86-28.83L108.86-28.83L108.86-28.83Q108.48-29.38 107.33-29.38L107.33-29.38L105.60-29.31L105.47-29.57L105.86-32L105.86-32Q106.62-32 108.86-31.94L108.86-31.94L108.86-31.94Q111.10-31.87 113.73-31.87L113.73-31.87L113.73-31.87Q124.42-31.87 129.54-32.45L129.54-32.45L129.73-32.13L129.73-32.13Q129.60-31.42 129.15-28.93L129.15-28.93L129.15-28.93Q128.70-26.43 128.51-23.55L128.51-23.55L125.44-23.30L125.44-23.30Q125.44-23.55 125.50-24.16L125.50-24.16L125.50-24.16Q125.57-24.77 125.57-25.41L125.57-25.41L125.57-25.41Q125.57-27.07 125.09-27.74L125.09-27.74L125.09-27.74Q124.61-28.42 123.10-28.64L123.10-28.64L123.10-28.64Q121.60-28.86 117.89-28.86L117.89-28.86L117.89-28.86Q116.16-28.86 115.52-28.77L115.52-28.77L115.52-28.77Q114.88-28.67 114.69-28.32L114.69-28.32L114.69-28.32Q114.50-27.97 114.43-27.01L114.43-27.01L114.05-17.92L119.30-17.86L119.30-17.86Q120.45-17.86 122.69-18.08L122.69-18.08L122.69-18.08Q124.93-18.30 125.63-18.37L125.63-18.37L125.89-18.05L125.12-14.72L125.12-14.72Q124.42-14.72 122.34-14.78L122.34-14.78L122.34-14.78Q120.26-14.85 117.95-14.85L117.95-14.85L117.95-14.85Q116.16-14.85 113.92-14.53L113.92-14.53L113.92-14.53Q113.73-9.66 113.73-5.76L113.73-5.76L113.73-5.76Q113.73-4.29 113.95-3.71L113.95-3.71L113.95-3.71Q114.18-3.14 114.98-2.94L114.98-2.94L114.98-2.94Q115.78-2.75 117.63-2.75L117.63-2.75L117.63-2.75Q121.79-2.75 123.58-3.14L123.58-3.14L123.58-3.14Q125.38-3.52 126.11-4.70L126.11-4.70L126.11-4.70Q126.85-5.89 127.30-8.77L127.30-8.77L130.11-9.02L130.37-8.70L130.37-8.70Q130.18-8 129.70-5.41L129.70-5.41L129.70-5.41Q129.22-2.82 128.96 0L128.96 0L128.58 0.32L128.58 0.32Q126.85 0.26 121.41 0.13L121.41 0.13L121.41 0.13Q115.97 0 112.58 0L112.58 0L112.58 0Q109.95 0 107.71 0.22L107.71 0.22L107.71 0.22Q105.47 0.45 104.83 0.51L104.83 0.51ZM161.47 0.77L161.47 0.77Q160.06 0.77 158.59-0.48L158.59-0.48L158.59-0.48Q157.12-1.73 155.90-3.90L155.90-3.90L150.53-13.31L146.37-13.31L146.24-6.46L146.24-6.46Q146.24-4.61 146.50-3.81L146.50-3.81L146.50-3.81Q146.75-3.01 147.49-2.75L147.49-2.75L147.49-2.75Q148.22-2.50 150.02-2.43L150.02-2.43L150.14-2.24L149.63 0.19L149.63 0.19Q148.86 0.13 146.85 0.10L146.85 0.10L146.85 0.10Q144.83 0.06 142.78 0.06L142.78 0.06L142.78 0.06Q140.80 0.06 139.33 0.13L139.33 0.13L139.33 0.13Q137.86 0.19 137.34 0.26L137.34 0.26L137.79-2.37L137.79-2.37Q140.16-2.69 140.93-3.46L140.93-3.46L140.93-3.46Q141.70-4.22 141.70-6.34L141.70-6.34L141.76-26.75L141.76-26.75Q141.76-28.29 141.38-28.83L141.38-28.83L141.38-28.83Q140.99-29.38 139.90-29.38L139.90-29.38L138.11-29.31L137.92-29.57L138.30-32L138.30-32Q138.94-32 140.74-31.94L140.74-31.94L140.74-31.94Q142.53-31.87 144.32-31.87L144.32-31.87L144.32-31.87Q146.18-31.87 148.29-31.97L148.29-31.97L148.29-31.97Q150.40-32.06 151.17-32.06L151.17-32.06L151.17-32.06Q156.35-32.06 159.30-29.92L159.30-29.92L159.30-29.92Q162.24-27.78 162.24-24L162.24-24L162.24-24Q162.24-21.06 160.26-18.56L160.26-18.56L160.26-18.56Q158.27-16.06 154.69-14.46L154.69-14.46L160.13-6.27L160.13-6.27Q161.66-3.97 163.07-3.01L163.07-3.01L163.07-3.01Q164.48-2.05 166.46-2.05L166.46-2.05L166.72-1.73L166.40 0.26L161.47 0.77ZM151.68-16.13L151.68-16.13Q152.90-16.64 153.82-17.12L153.82-17.12L153.82-17.12Q154.75-17.60 155.90-19.14L155.90-19.14L155.90-19.14Q157.06-20.67 157.06-23.10L157.06-23.10L157.06-23.10Q157.06-29.31 147.90-29.31L147.90-29.31L147.90-29.31Q147.39-29.31 147.20-29.09L147.20-29.09L147.20-29.09Q147.01-28.86 147.01-28.16L147.01-28.16L147.01-28.16Q146.50-20.35 146.50-16.64L146.50-16.64L151.68-16.13ZM171.20 0.58L171.52-2.05L171.52-2.05Q173.89-2.50 174.72-3.36L174.72-3.36L174.72-3.36Q175.55-4.22 175.55-6.34L175.55-6.34L175.62-26.69L175.62-26.69Q175.62-28.29 175.23-28.83L175.23-28.83L175.23-28.83Q174.85-29.38 173.70-29.38L173.70-29.38L171.97-29.31L171.78-29.57L172.16-32L172.16-32Q172.80-32 174.56-31.94L174.56-31.94L174.56-31.94Q176.32-31.87 178.11-31.87L178.11-31.87L178.11-31.87Q179.58-31.87 181.63-32.06L181.63-32.06L181.63-32.06Q183.68-32.26 184.32-32.32L184.32-32.32L184.06-29.70L184.06-29.70Q182.53-29.44 181.89-29.09L181.89-29.09L181.89-29.09Q181.25-28.74 181.02-28L181.02-28L181.02-28Q180.80-27.26 180.67-25.47L180.67-25.47L180.35-17.73L188.67-17.66L188.67-17.66Q192.06-17.66 196.03-18.11L196.03-18.11L196.10-26.69L196.10-26.69Q196.10-28.29 195.71-28.83L195.71-28.83L195.71-28.83Q195.33-29.38 194.18-29.38L194.18-29.38L192.38-29.31L192.26-29.57L192.64-32L192.64-32Q193.22-31.94 194.88-31.90L194.88-31.90L194.88-31.90Q196.54-31.87 198.14-31.87L198.14-31.87L198.14-31.87Q199.68-31.87 201.89-32.06L201.89-32.06L201.89-32.06Q204.10-32.26 204.80-32.32L204.80-32.32L204.61-29.70L204.61-29.70Q202.62-29.44 201.98-28.90L201.98-28.90L201.98-28.90Q201.34-28.35 201.28-26.88L201.28-26.88L201.28-26.88Q201.02-21.82 200.80-15.58L200.80-15.58L200.80-15.58Q200.58-9.34 200.58-5.95L200.58-5.95L200.58-5.95Q200.58-3.90 201.02-3.23L201.02-3.23L201.02-3.23Q201.47-2.56 202.82-2.56L202.82-2.56L202.82-2.56Q203.58-2.56 204.22-2.62L204.22-2.62L204.22-2.62Q204.86-2.69 205.06-2.69L205.06-2.69L205.25-2.43L204.74 0.13L204.74 0.13Q204.03 0.13 202.08 0.06L202.08 0.06L202.08 0.06Q200.13 0 198.02 0L198.02 0L191.62 0.06L192.13-2.50L192.13-2.50Q193.79-2.50 194.59-2.91L194.59-2.91L194.59-2.91Q195.39-3.33 195.71-4.38L195.71-4.38L195.71-4.38Q196.03-5.44 196.03-7.55L196.03-7.55L196.03-14.72L188.67-14.78L188.67-14.78Q187.65-14.78 184.51-14.56L184.51-14.56L184.51-14.56Q181.38-14.34 180.29-14.27L180.29-14.27L180.10-5.95L180.10-5.95Q180.10-3.90 180.54-3.20L180.54-3.20L180.54-3.20Q180.99-2.50 182.34-2.50L182.34-2.50L182.34-2.50Q183.10-2.50 183.74-2.56L183.74-2.56L183.74-2.56Q184.38-2.62 184.58-2.69L184.58-2.69L184.70-2.43L184.26 0.13L184.26 0.13Q183.74 0.13 182.30 0.06L182.30 0.06L182.30 0.06Q180.86 0 179.26 0L179.26 0L179.26 0Q176.90 0 174.08 0.19L174.08 0.19L174.08 0.19Q171.26 0.38 171.20 0.58L171.20 0.58ZM212.10 0.51L212.42-2.18L212.42-2.18Q214.78-2.43 215.62-3.33L215.62-3.33L215.62-3.33Q216.45-4.22 216.45-6.40L216.45-6.40L216.51-26.69L216.51-26.69Q216.51-28.29 216.13-28.83L216.13-28.83L216.13-28.83Q215.74-29.38 214.59-29.38L214.59-29.38L212.86-29.31L212.74-29.57L213.12-32L213.12-32Q213.89-32 216.13-31.94L216.13-31.94L216.13-31.94Q218.37-31.87 220.99-31.87L220.99-31.87L220.99-31.87Q231.68-31.87 236.80-32.45L236.80-32.45L236.99-32.13L236.99-32.13Q236.86-31.42 236.42-28.93L236.42-28.93L236.42-28.93Q235.97-26.43 235.78-23.55L235.78-23.55L232.70-23.30L232.70-23.30Q232.70-23.55 232.77-24.16L232.77-24.16L232.77-24.16Q232.83-24.77 232.83-25.41L232.83-25.41L232.83-25.41Q232.83-27.07 232.35-27.74L232.35-27.74L232.35-27.74Q231.87-28.42 230.37-28.64L230.37-28.64L230.37-28.64Q228.86-28.86 225.15-28.86L225.15-28.86L225.15-28.86Q223.42-28.86 222.78-28.77L222.78-28.77L222.78-28.77Q222.14-28.67 221.95-28.32L221.95-28.32L221.95-28.32Q221.76-27.97 221.70-27.01L221.70-27.01L221.31-17.92L226.56-17.86L226.56-17.86Q227.71-17.86 229.95-18.08L229.95-18.08L229.95-18.08Q232.19-18.30 232.90-18.37L232.90-18.37L233.15-18.05L232.38-14.72L232.38-14.72Q231.68-14.72 229.60-14.78L229.60-14.78L229.60-14.78Q227.52-14.85 225.22-14.85L225.22-14.85L225.22-14.85Q223.42-14.85 221.18-14.53L221.18-14.53L221.18-14.53Q220.99-9.66 220.99-5.76L220.99-5.76L220.99-5.76Q220.99-4.29 221.22-3.71L221.22-3.71L221.22-3.71Q221.44-3.14 222.24-2.94L222.24-2.94L222.24-2.94Q223.04-2.75 224.90-2.75L224.90-2.75L224.90-2.75Q229.06-2.75 230.85-3.14L230.85-3.14L230.85-3.14Q232.64-3.52 233.38-4.70L233.38-4.70L233.38-4.70Q234.11-5.89 234.56-8.77L234.56-8.77L237.38-9.02L237.63-8.70L237.63-8.70Q237.44-8 236.96-5.41L236.96-5.41L236.96-5.41Q236.48-2.82 236.22 0L236.22 0L235.84 0.32L235.84 0.32Q234.11 0.26 228.67 0.13L228.67 0.13L228.67 0.13Q223.23 0 219.84 0L219.84 0L219.84 0Q217.22 0 214.98 0.22L214.98 0.22L214.98 0.22Q212.74 0.45 212.10 0.51L212.10 0.51ZM268.74 0.77L268.74 0.77Q267.33 0.77 265.86-0.48L265.86-0.48L265.86-0.48Q264.38-1.73 263.17-3.90L263.17-3.90L257.79-13.31L253.63-13.31L253.50-6.46L253.50-6.46Q253.50-4.61 253.76-3.81L253.76-3.81L253.76-3.81Q254.02-3.01 254.75-2.75L254.75-2.75L254.75-2.75Q255.49-2.50 257.28-2.43L257.28-2.43L257.41-2.24L256.90 0.19L256.90 0.19Q256.13 0.13 254.11 0.10L254.11 0.10L254.11 0.10Q252.10 0.06 250.05 0.06L250.05 0.06L250.05 0.06Q248.06 0.06 246.59 0.13L246.59 0.13L246.59 0.13Q245.12 0.19 244.61 0.26L244.61 0.26L245.06-2.37L245.06-2.37Q247.42-2.69 248.19-3.46L248.19-3.46L248.19-3.46Q248.96-4.22 248.96-6.34L248.96-6.34L249.02-26.75L249.02-26.75Q249.02-28.29 248.64-28.83L248.64-28.83L248.64-28.83Q248.26-29.38 247.17-29.38L247.17-29.38L245.38-29.31L245.18-29.57L245.57-32L245.57-32Q246.21-32 248-31.94L248-31.94L248-31.94Q249.79-31.87 251.58-31.87L251.58-31.87L251.58-31.87Q253.44-31.87 255.55-31.97L255.55-31.97L255.55-31.97Q257.66-32.06 258.43-32.06L258.43-32.06L258.43-32.06Q263.62-32.06 266.56-29.92L266.56-29.92L266.56-29.92Q269.50-27.78 269.50-24L269.50-24L269.50-24Q269.50-21.06 267.52-18.56L267.52-18.56L267.52-18.56Q265.54-16.06 261.95-14.46L261.95-14.46L267.39-6.27L267.39-6.27Q268.93-3.97 270.34-3.01L270.34-3.01L270.34-3.01Q271.74-2.05 273.73-2.05L273.73-2.05L273.98-1.73L273.66 0.26L268.74 0.77ZM258.94-16.13L258.94-16.13Q260.16-16.64 261.09-17.12L261.09-17.12L261.09-17.12Q262.02-17.60 263.17-19.14L263.17-19.14L263.17-19.14Q264.32-20.67 264.32-23.10L264.32-23.10L264.32-23.10Q264.32-29.31 255.17-29.31L255.17-29.31L255.17-29.31Q254.66-29.31 254.46-29.09L254.46-29.09L254.46-29.09Q254.27-28.86 254.27-28.16L254.27-28.16L254.27-28.16Q253.76-20.35 253.76-16.64L253.76-16.64L258.94-16.13ZM292.35 0.58L292.35 0.58Q288 0.58 284.64-1.34L284.64-1.34L284.64-1.34Q281.28-3.26 279.46-6.78L279.46-6.78L279.46-6.78Q277.63-10.30 277.63-14.91L277.63-14.91L277.63-14.91Q277.63-19.90 279.90-23.90L279.90-23.90L279.90-23.90Q282.18-27.90 286.11-30.18L286.11-30.18L286.11-30.18Q290.05-32.45 294.91-32.45L294.91-32.45L294.91-32.45Q299.33-32.45 302.72-30.53L302.72-30.53L302.72-30.53Q306.11-28.61 307.97-25.12L307.97-25.12L307.97-25.12Q309.82-21.63 309.82-17.02L309.82-17.02L309.82-17.02Q309.82-12.03 307.55-8.03L307.55-8.03L307.55-8.03Q305.28-4.03 301.28-1.73L301.28-1.73L301.28-1.73Q297.28 0.58 292.35 0.58L292.35 0.58ZM293.89-2.50L293.89-2.50Q298.56-2.50 301.44-5.86L301.44-5.86L301.44-5.86Q304.32-9.22 304.32-14.78L304.32-14.78L304.32-14.78Q304.32-19.01 302.94-22.21L302.94-22.21L302.94-22.21Q301.57-25.41 299.04-27.14L299.04-27.14L299.04-27.14Q296.51-28.86 293.18-28.86L293.18-28.86L293.18-28.86Q288.64-28.86 285.86-25.54L285.86-25.54L285.86-25.54Q283.07-22.21 283.07-16.64L283.07-16.64L283.07-16.64Q283.07-12.42 284.42-9.22L284.42-9.22L284.42-9.22Q285.76-6.02 288.22-4.26L288.22-4.26L288.22-4.26Q290.69-2.50 293.89-2.50L293.89-2.50ZM343.30 0.45L343.10 0.13L343.30-2.18L343.30-2.18Q345.98-2.37 346.91-2.75L346.91-2.75L346.91-2.75Q347.84-3.14 347.84-4.03L347.84-4.03L347.84-4.03Q347.84-5.06 347.39-6.21L347.39-6.21L345.86-11.14L345.86-11.14Q344.58-11.20 340.54-11.20L340.54-11.20L340.54-11.20Q338.69-11.20 335.04-10.82L335.04-10.82L333.25-6.08L333.25-6.08Q332.80-4.61 332.80-4.29L332.80-4.29L332.80-4.29Q332.80-3.26 333.50-2.82L333.50-2.82L333.50-2.82Q334.21-2.37 335.81-2.37L335.81-2.37L338.56-2.37L338.75-2.11L338.37 0.32L338.37 0.32Q337.73 0.26 335.46 0.13L335.46 0.13L335.46 0.13Q333.18 0 331.01 0L331.01 0L331.01 0Q328.96 0 327.33 0.06L327.33 0.06L327.33 0.06Q325.70 0.13 325.12 0.13L325.12 0.13L325.50-2.50L325.50-2.50Q326.91-2.69 327.74-3.49L327.74-3.49L327.74-3.49Q328.58-4.29 329.41-6.21L329.41-6.21L339.46-31.62L344-32.45L344.45-32.38L344.45-32.38Q344.45-32.13 347.36-22.27L347.36-22.27L347.36-22.27Q350.27-12.42 352.58-5.95L352.58-5.95L352.58-5.95Q353.22-4.10 354.21-3.36L354.21-3.36L354.21-3.36Q355.20-2.62 357.38-2.43L357.38-2.43L357.50-2.18L357.18 0.13L357.18 0.13Q356.54 0.13 354.82 0.06L354.82 0.06L354.82 0.06Q353.09 0 351.36 0L351.36 0L351.36 0Q348.74 0 346.37 0.19L346.37 0.19L346.37 0.19Q344 0.38 343.30 0.45L343.30 0.45ZM336.06-13.82L340.42-13.82L340.42-13.82Q342.66-13.82 345.09-14.08L345.09-14.08L341.18-26.50L340.74-26.50L336.06-13.82ZM361.47 0.38L361.86-2.24L361.86-2.24Q364.10-2.62 364.83-3.42L364.83-3.42L364.83-3.42Q365.57-4.22 365.57-6.34L365.57-6.34L365.63-26.69L365.63-26.69Q365.63-28.29 365.25-28.83L365.25-28.83L365.25-28.83Q364.86-29.38 363.78-29.38L363.78-29.38L361.98-29.31L361.79-29.57L362.18-32L362.18-32Q362.50-32 364.06-31.94L364.06-31.94L364.06-31.94Q365.63-31.87 368.19-31.87L368.19-31.87L368.19-31.87Q369.92-31.87 372.10-31.97L372.10-31.97L372.10-31.97Q374.27-32.06 375.17-32.06L375.17-32.06L375.17-32.06Q380.93-32.06 383.84-29.63L383.84-29.63L383.84-29.63Q386.75-27.20 386.75-22.98L386.75-22.98L386.75-22.98Q386.75-20.16 385.02-17.60L385.02-17.60L385.02-17.60Q383.30-15.04 380.51-13.47L380.51-13.47L380.51-13.47Q377.73-11.90 374.59-11.90L374.59-11.90L370.18-11.90L370.11-7.42L370.11-7.42Q370.11-5.18 370.27-4.19L370.27-4.19L370.27-4.19Q370.43-3.20 370.88-2.88L370.88-2.88L370.88-2.88Q371.33-2.56 372.42-2.56L372.42-2.56L372.42-2.56Q373.25-2.56 374.08-2.62L374.08-2.62L374.08-2.62Q374.91-2.69 375.17-2.69L375.17-2.69L375.30-2.43L374.78 0.13L374.78 0.13Q374.21 0.13 372.67 0.06L372.67 0.06L372.67 0.06Q371.14 0 369.54 0L369.54 0L369.54 0Q367.42 0 364.48 0.13L364.48 0.13L364.48 0.13Q361.54 0.26 361.47 0.38L361.47 0.38ZM375.62-14.66L375.62-14.66Q381.57-15.62 381.57-22.08L381.57-22.08L381.57-22.08Q381.57-25.66 379.33-27.36L379.33-27.36L379.33-27.36Q377.09-29.06 372.22-29.06L372.22-29.06L372.22-29.06Q371.33-29.06 371.14-28.96L371.14-28.96L371.14-28.96Q370.94-28.86 370.88-28.29L370.88-28.29L370.88-28.29Q370.37-20.16 370.30-15.36L370.30-15.36L375.62-14.66ZM392.13 0.38L392.51-2.24L392.51-2.24Q394.75-2.62 395.49-3.42L395.49-3.42L395.49-3.42Q396.22-4.22 396.22-6.34L396.22-6.34L396.29-26.69L396.29-26.69Q396.29-28.29 395.90-28.83L395.90-28.83L395.90-28.83Q395.52-29.38 394.43-29.38L394.43-29.38L392.64-29.31L392.45-29.57L392.83-32L392.83-32Q393.15-32 394.72-31.94L394.72-31.94L394.72-31.94Q396.29-31.87 398.85-31.87L398.85-31.87L398.85-31.87Q400.58-31.87 402.75-31.97L402.75-31.97L402.75-31.97Q404.93-32.06 405.82-32.06L405.82-32.06L405.82-32.06Q411.58-32.06 414.50-29.63L414.50-29.63L414.50-29.63Q417.41-27.20 417.41-22.98L417.41-22.98L417.41-22.98Q417.41-20.16 415.68-17.60L415.68-17.60L415.68-17.60Q413.95-15.04 411.17-13.47L411.17-13.47L411.17-13.47Q408.38-11.90 405.25-11.90L405.25-11.90L400.83-11.90L400.77-7.42L400.77-7.42Q400.77-5.18 400.93-4.19L400.93-4.19L400.93-4.19Q401.09-3.20 401.54-2.88L401.54-2.88L401.54-2.88Q401.98-2.56 403.07-2.56L403.07-2.56L403.07-2.56Q403.90-2.56 404.74-2.62L404.74-2.62L404.74-2.62Q405.57-2.69 405.82-2.69L405.82-2.69L405.95-2.43L405.44 0.13L405.44 0.13Q404.86 0.13 403.33 0.06L403.33 0.06L403.33 0.06Q401.79 0 400.19 0L400.19 0L400.19 0Q398.08 0 395.14 0.13L395.14 0.13L395.14 0.13Q392.19 0.26 392.13 0.38L392.13 0.38ZM406.27-14.66L406.27-14.66Q412.22-15.62 412.22-22.08L412.22-22.08L412.22-22.08Q412.22-25.66 409.98-27.36L409.98-27.36L409.98-27.36Q407.74-29.06 402.88-29.06L402.88-29.06L402.88-29.06Q401.98-29.06 401.79-28.96L401.79-28.96L401.79-28.96Q401.60-28.86 401.54-28.29L401.54-28.29L401.54-28.29Q401.02-20.16 400.96-15.36L400.96-15.36L406.27-14.66Z" fill="url(#editing-sticker-gradient)" stroke="#000" stroke-width="2.5"></path></g></g><style>text {
  font-size: 64px;
  font-family: Arial Black;
  dominant-baseline: central;
  text-anchor: middle;
}</style></svg>